# xmcd
#
# Track frame offsets:
#      150
#      19892
#      33287
#      54000
#      74675
#      110400
#      134025
#      171250
#      193650
#      210000
#      238550
#      267275
# 
# Disc length: 3983 seconds
#
# Revision: 4
# Processed by: cddbd v1.4PL0 Copyright (c) Steve Scherf et al.
#
# Submitted via: FreeRIP 1.21
#
DISCID=a60f8d0c
DTITLE=Blues for two - A road affair
DYEAR=1990
DGENRE=Blues
TTITLE0=Stromboli shore
TTITLE1=Winter shuffle
TTITLE2=Rudi's blues
TTITLE3=The laws must change
TTITLE4=Feel much better
TTITLE5=Flip flop and fly
TTITLE6=Every summer
TTITLE7=Don't jump in the water
TTITLE8=Jazzband on the road
TTITLE9=Get up and go
TTITLE10=Room to move
TTITLE11=Wasted boogie
EXTD=
EXTT0=
EXTT1=
EXTT2=
EXTT3=
EXTT4=
EXTT5=
EXTT6=
EXTT7=
EXTT8=
EXTT9=
EXTT10=
EXTT11=
PLAYORDER=
